<svg xmlns="http://www.w3.org/2000/svg" viewBox="0 0 320 380" width="320" height="380">
  <defs>
    <!-- Gradients -->
    <radialGradient id="bgCircle" cx="50%" cy="50%" r="50%">
      <stop offset="0%"   stop-color="#2a1800"/>
      <stop offset="100%" stop-color="#0d0800"/>
    </radialGradient>
    <linearGradient id="goldMain" x1="0%" y1="0%" x2="100%" y2="100%">
      <stop offset="0%"   stop-color="#ffe066"/>
      <stop offset="30%"  stop-color="#d4af37"/>
      <stop offset="70%"  stop-color="#c8960c"/>
      <stop offset="100%" stop-color="#8b6000"/>
    </linearGradient>
    <linearGradient id="goldLight" x1="0%" y1="0%" x2="100%" y2="100%">
      <stop offset="0%"   stop-color="#fff5a0"/>
      <stop offset="50%"  stop-color="#f0c030"/>
      <stop offset="100%" stop-color="#a07010"/>
    </linearGradient>
    <linearGradient id="goldDark" x1="0%" y1="0%" x2="0%" y2="100%">
      <stop offset="0%"   stop-color="#e8c040"/>
      <stop offset="100%" stop-color="#6b4800"/>
    </linearGradient>
    <radialGradient id="bottleBody" cx="40%" cy="35%" r="60%">
      <stop offset="0%"   stop-color="#f0d060" stop-opacity="0.4"/>
      <stop offset="60%"  stop-color="#c8960c" stop-opacity="0.2"/>
      <stop offset="100%" stop-color="#8b6000" stop-opacity="0.1"/>
    </radialGradient>
    <linearGradient id="gemPurple" x1="0%" y1="0%" x2="100%" y2="100%">
      <stop offset="0%"   stop-color="#e0aaff"/>
      <stop offset="40%"  stop-color="#9b59b6"/>
      <stop offset="100%" stop-color="#4a1080"/>
    </linearGradient>
    <linearGradient id="gemPurpleSmall" x1="0%" y1="0%" x2="100%" y2="100%">
      <stop offset="0%"   stop-color="#d4a0f8"/>
      <stop offset="50%"  stop-color="#8e44ad"/>
      <stop offset="100%" stop-color="#3a0868"/>
    </linearGradient>
    <radialGradient id="gemShine" cx="30%" cy="25%" r="50%">
      <stop offset="0%"   stop-color="#ffffff" stop-opacity="0.7"/>
      <stop offset="100%" stop-color="#ffffff" stop-opacity="0"/>
    </radialGradient>
    <filter id="glow" x="-20%" y="-20%" width="140%" height="140%">
      <feGaussianBlur stdDeviation="4" result="blur"/>
      <feMerge><feMergeNode in="blur"/><feMergeNode in="SourceGraphic"/></feMerge>
    </filter>
    <filter id="goldGlow" x="-30%" y="-30%" width="160%" height="160%">
      <feGaussianBlur stdDeviation="6" result="blur"/>
      <feColorMatrix in="blur" type="matrix" values="1 0.8 0 0 0.2  0.8 0.6 0 0 0.1  0 0 0 0 0  0 0 0 0.6 0" result="goldBlur"/>
      <feMerge><feMergeNode in="goldBlur"/><feMergeNode in="SourceGraphic"/></feMerge>
    </filter>
    <filter id="gemGlow">
      <feGaussianBlur stdDeviation="3" result="blur"/>
      <feColorMatrix in="blur" type="matrix" values="0.6 0 0.8 0 0.1  0 0 0.6 0 0  0.8 0 1 0 0.2  0 0 0 0.8 0" result="purpleBlur"/>
      <feMerge><feMergeNode in="purpleBlur"/><feMergeNode in="SourceGraphic"/></feMerge>
    </filter>
  </defs>

  <!-- ═══ SUNBURST RAYS (crown around bottle) ═══ -->
  <g transform="translate(160,175)" filter="url(#goldGlow)">
    <!-- 16 rays in a sunburst pattern -->
    <g fill="url(#goldMain)" opacity="0.9">
      <!-- Long rays at cardinal/diagonal points -->
      <polygon points="0,-118 5,-85 -5,-85"/>
      <polygon points="84,-84 65,-60 55,-70"/>
      <polygon points="118,0 85,5 85,-5"/>
      <polygon points="84,84 60,65 70,55"/>
      <polygon points="0,118 -5,85 5,85"/>
      <polygon points="-84,84 -55,70 -65,60"/>
      <polygon points="-118,0 -85,-5 -85,5"/>
      <polygon points="-84,-84 -70,-55 -60,-65"/>

      <!-- Medium rays between main ones -->
      <polygon points="44,-108 36,-78 28,-83" opacity="0.75"/>
      <polygon points="108,-44 80,-28 83,-36" opacity="0.75"/>
      <polygon points="108,44 83,36 80,28" opacity="0.75"/>
      <polygon points="44,108 28,83 36,78" opacity="0.75"/>
      <polygon points="-44,108 -36,78 -28,83" opacity="0.75"/>
      <polygon points="-108,44 -80,28 -83,36" opacity="0.75"/>
      <polygon points="-108,-44 -83,-36 -80,-28" opacity="0.75"/>
      <polygon points="-44,-108 -28,-83 -36,-78" opacity="0.75"/>
    </g>
  </g>

  <!-- ═══ OUTER RING ═══ -->
  <circle cx="160" cy="175" r="100" fill="none" stroke="url(#goldMain)" stroke-width="5" filter="url(#goldGlow)"/>
  <circle cx="160" cy="175" r="95"  fill="none" stroke="url(#goldLight)" stroke-width="1.5" opacity="0.6"/>

  <!-- ═══ BOTTLE BODY (round, fills the circle) ═══ -->
  <circle cx="160" cy="175" r="88" fill="url(#bgCircle)"/>
  <!-- Inner gold ring -->
  <circle cx="160" cy="175" r="88" fill="none" stroke="url(#goldDark)" stroke-width="3"/>
  <!-- Subtle bottle body glow -->
  <circle cx="160" cy="175" r="84" fill="url(#bottleBody)"/>

  <!-- Inner decorative ring -->
  <circle cx="160" cy="175" r="75" fill="none" stroke="url(#goldMain)" stroke-width="1.5" stroke-dasharray="6 4" opacity="0.5"/>

  <!-- ═══ FP TEXT ═══ -->
  <text x="160" y="195"
    font-family="Georgia, 'Times New Roman', serif"
    font-size="58"
    font-weight="900"
    text-anchor="middle"
    fill="url(#goldLight)"
    filter="url(#glow)"
    letter-spacing="-2">FP</text>
  <!-- FP shimmer -->
  <text x="160" y="195"
    font-family="Georgia, 'Times New Roman', serif"
    font-size="58"
    font-weight="900"
    text-anchor="middle"
    fill="white"
    opacity="0.12"
    letter-spacing="-2">FP</text>

  <!-- Horizontal decorative lines around FP -->
  <line x1="90" y1="152" x2="130" y2="152" stroke="url(#goldMain)" stroke-width="1" opacity="0.6"/>
  <line x1="190" y1="152" x2="230" y2="152" stroke="url(#goldMain)" stroke-width="1" opacity="0.6"/>
  <line x1="90" y1="205" x2="130" y2="205" stroke="url(#goldMain)" stroke-width="1" opacity="0.6"/>
  <line x1="190" y1="205" x2="230" y2="205" stroke="url(#goldMain)" stroke-width="1" opacity="0.6"/>

  <!-- Small diamond ornaments on lines -->
  <polygon points="160,146 163,152 160,158 157,152" fill="url(#goldMain)" opacity="0.8"/>
  <polygon points="160,199 163,205 160,211 157,205" fill="url(#goldMain)" opacity="0.8"/>

  <!-- ═══ BOTTLE NECK (top of bottle going up) ═══ -->
  <rect x="148" y="70" width="24" height="18" rx="4" fill="url(#goldDark)" stroke="url(#goldMain)" stroke-width="1.5"/>
  <!-- Neck highlight -->
  <rect x="150" y="72" width="8" height="14" rx="2" fill="url(#goldLight)" opacity="0.4"/>

  <!-- ═══ MAIN GEM (bottle cap) ═══ -->
  <g transform="translate(160,52)" filter="url(#gemGlow)">
    <!-- Gem body -->
    <polygon points="0,-22 20,-5 15,14 -15,14 -20,-5" fill="url(#gemPurple)" stroke="#c090ff" stroke-width="1.5"/>
    <!-- Gem facets -->
    <polygon points="0,-22 20,-5 0,0"   fill="#b060e0" opacity="0.7"/>
    <polygon points="0,-22 -20,-5 0,0"  fill="#d090ff" opacity="0.5"/>
    <polygon points="20,-5 15,14 0,0"   fill="#8030b0" opacity="0.6"/>
    <polygon points="-20,-5 -15,14 0,0" fill="#9040c8" opacity="0.5"/>
    <polygon points="15,14 -15,14 0,0"  fill="#6020a0" opacity="0.7"/>
    <!-- Gem shine -->
    <ellipse cx="-5" cy="-10" rx="6" ry="4" fill="white" opacity="0.35" transform="rotate(-20,-5,-10)"/>
    <circle cx="-8" cy="-14" r="2" fill="white" opacity="0.5"/>
  </g>

  <!-- ═══ SPRAY NOZZLE (curved line from neck to right gem) ═══ -->
  <path d="M 175 70 Q 215 45 245 55" fill="none" stroke="url(#goldMain)" stroke-width="3" stroke-linecap="round"/>
  <!-- Small ball at end of nozzle -->
  <circle cx="246" cy="55" r="5" fill="url(#goldMain)" stroke="url(#goldLight)" stroke-width="1"/>

  <!-- ═══ FLOATING SMALL GEM (right side, sprayed out) ═══ -->
  <g transform="translate(268,40)" filter="url(#gemGlow)">
    <polygon points="0,-16 14,-4 10,10 -10,10 -14,-4" fill="url(#gemPurpleSmall)" stroke="#d0a0ff" stroke-width="1.2"/>
    <polygon points="0,-16 14,-4 0,0"   fill="#c070f0" opacity="0.7"/>
    <polygon points="0,-16 -14,-4 0,0"  fill="#e0b0ff" opacity="0.5"/>
    <polygon points="14,-4 10,10 0,0"   fill="#8030b0" opacity="0.6"/>
    <polygon points="-14,-4 -10,10 0,0" fill="#a050d0" opacity="0.5"/>
    <polygon points="10,10 -10,10 0,0"  fill="#6020a0" opacity="0.7"/>
    <ellipse cx="-3" cy="-7" rx="4" ry="3" fill="white" opacity="0.35" transform="rotate(-20,-3,-7)"/>
    <circle  cx="-5" cy="-10" r="1.5" fill="white" opacity="0.5"/>
  </g>

  <!-- ═══ BOTTOM TAGLINE ═══ -->
  <text x="160" y="295"
    font-family="Georgia, 'Times New Roman', serif"
    font-size="13"
    font-weight="700"
    text-anchor="middle"
    fill="url(#goldMain)"
    letter-spacing="2"
    filter="url(#glow)">FANCY PERFUME</text>

  <text x="160" y="320"
    font-family="Georgia, serif"
    font-size="11"
    text-anchor="middle"
    fill="url(#goldLight)"
    letter-spacing="1"
    opacity="0.85">The Royalty of fragrance</text>

  <!-- Decorative line under brand name -->
  <line x1="95"  y1="302" x2="135" y2="302" stroke="url(#goldMain)" stroke-width="0.8" opacity="0.5"/>
  <line x1="185" y1="302" x2="225" y2="302" stroke="url(#goldMain)" stroke-width="0.8" opacity="0.5"/>
  <polygon points="160,298 163,302 160,306 157,302" fill="url(#goldMain)" opacity="0.7"/>

  <!-- Small sparkles -->
  <g fill="url(#goldLight)" opacity="0.7">
    <polygon points="40,175 43,180 40,185 37,180"/>
    <polygon points="280,175 283,180 280,185 277,180"/>
    <circle cx="40"  cy="100" r="2"/>
    <circle cx="280" cy="100" r="2"/>
    <circle cx="40"  cy="250" r="2"/>
    <circle cx="280" cy="250" r="2"/>
  </g>
</svg>
